<svg width="516" height="140" viewBox="0 0 516 140" fill="none" xmlns="http://www.w3.org/2000/svg">
<path d="M54.624 79.16V93.464C54.624 101.592 52.576 108.056 48.48 112.856C44.448 117.592 38.624 119.96 31.008 119.96C23.392 119.96 17.536 117.592 13.44 112.856C9.408 108.056 7.392 101.592 7.392 93.464V79.16C7.392 71.096 9.408 64.696 13.44 59.96C17.536 55.16 23.392 52.76 31.008 52.76C38.624 52.76 44.448 55.16 48.48 59.96C52.576 64.696 54.624 71.096 54.624 79.16ZM45.984 79.16C45.984 73.208 44.704 68.632 42.144 65.432C39.648 62.168 35.936 60.536 31.008 60.536C26.144 60.536 22.432 62.168 19.872 65.432C17.312 68.632 16.032 73.208 16.032 79.16V93.464C16.032 99.48 17.312 104.12 19.872 107.384C22.432 110.648 26.144 112.28 31.008 112.28C35.936 112.28 39.648 110.648 42.144 107.384C44.704 104.12 45.984 99.48 45.984 93.464V79.16ZM93.4523 77.912C91.6603 77.912 89.5483 78.36 87.1163 79.256C84.7483 80.152 81.8683 81.976 78.4763 84.728V119H70.6043V71.48H78.0923V78.104C81.4843 75.224 84.5563 73.24 87.3083 72.152C90.1243 71.064 92.8123 70.52 95.3723 70.52C99.7883 70.52 103.148 71.928 105.452 74.744C107.82 77.496 109.004 81.432 109.004 86.552V119H101.132V87.704C101.132 81.176 98.5723 77.912 93.4523 77.912ZM125.352 107.48V47.96H133.224V107.096C133.224 108.824 133.48 110.136 133.992 111.032C134.568 111.864 135.688 112.28 137.352 112.28H138.888V119.48H136.68C132.456 119.48 129.512 118.36 127.848 116.12C126.184 113.88 125.352 111 125.352 107.48ZM159.113 59.864H150.281V51.032H159.113V59.864ZM158.633 119H150.761V71.48H158.633V119ZM198.452 77.912C196.66 77.912 194.548 78.36 192.116 79.256C189.748 80.152 186.868 81.976 183.476 84.728V119H175.604V71.48H183.092V78.104C186.484 75.224 189.556 73.24 192.308 72.152C195.124 71.064 197.812 70.52 200.372 70.52C204.788 70.52 208.148 71.928 210.452 74.744C212.82 77.496 214.004 81.432 214.004 86.552V119H206.132V87.704C206.132 81.176 203.572 77.912 198.452 77.912ZM264.912 116.216C262.032 117.624 259.152 118.584 256.272 119.096C253.392 119.672 250.736 119.96 248.304 119.96C241.456 119.96 236.336 118.008 232.944 114.104C229.616 110.2 227.952 104.856 227.952 98.072V92.312C227.952 85.72 229.616 80.44 232.944 76.472C236.336 72.504 241.104 70.52 247.248 70.52C250.512 70.52 253.488 71.192 256.176 72.536C258.928 73.816 261.104 75.8 262.704 78.488C264.368 81.112 265.2 84.504 265.2 88.664C265.2 91.352 264.816 94.424 264.048 97.88H235.728V98.072C235.728 102.936 236.72 106.616 238.704 109.112C240.752 111.608 244.016 112.856 248.496 112.856C250.544 112.856 252.784 112.6 255.216 112.088C257.712 111.576 260.144 110.776 262.512 109.688L264.912 116.216ZM247.248 77.432C243.536 77.432 240.72 78.648 238.8 81.08C236.944 83.448 235.92 86.808 235.728 91.16H257.232C257.424 90.008 257.52 88.92 257.52 87.896C257.52 84.312 256.496 81.688 254.448 80.024C252.464 78.296 250.064 77.432 247.248 77.432ZM275.751 93.368V86.456H302.631V93.368H275.751ZM330.458 112.472C334.49 112.472 337.594 111.608 339.77 109.88C341.946 108.088 343.034 105.496 343.034 102.104C343.034 99.288 342.266 96.92 340.73 95C339.258 93.08 336.826 91.608 333.434 90.584L325.658 88.28C320.794 86.808 317.21 84.6 314.906 81.656C312.602 78.648 311.45 74.968 311.45 70.616C311.45 67.288 312.09 64.28 313.37 61.592C314.714 58.904 316.826 56.76 319.706 55.16C322.65 53.56 326.49 52.76 331.226 52.76C334.106 52.76 337.082 53.112 340.154 53.816C343.226 54.456 346.33 55.512 349.466 56.984L346.778 64.184C343.706 62.84 340.922 61.88 338.426 61.304C335.994 60.664 333.658 60.344 331.418 60.344C327.77 60.344 324.922 61.112 322.874 62.648C320.89 64.12 319.898 66.584 319.898 70.04C319.898 72.536 320.57 74.648 321.914 76.376C323.258 78.04 325.658 79.416 329.114 80.504L336.89 82.808C346.618 85.688 351.482 91.896 351.482 101.432C351.482 106.936 349.818 111.416 346.49 114.872C343.162 118.264 337.818 119.96 330.458 119.96C327.45 119.96 324.25 119.608 320.858 118.904C317.53 118.136 314.074 116.952 310.49 115.352L313.082 108.248C316.474 109.784 319.514 110.872 322.202 111.512C324.954 112.152 327.706 112.472 330.458 112.472ZM386.796 77.912C385.004 77.912 382.892 78.36 380.46 79.256C378.092 80.152 375.212 81.976 371.82 84.728V119H363.948V47.96H371.82V77.816C375.148 75 378.156 73.08 380.844 72.056C383.532 71.032 386.156 70.52 388.716 70.52C393.132 70.52 396.492 71.928 398.796 74.744C401.164 77.496 402.348 81.432 402.348 86.552V119H394.476V87.704C394.476 81.176 391.916 77.912 386.796 77.912ZM456.424 92.312V98.072C456.424 104.856 454.664 110.2 451.144 114.104C447.688 118.008 442.728 119.96 436.264 119.96C429.864 119.96 424.904 118.008 421.384 114.104C417.864 110.2 416.104 104.856 416.104 98.072V92.312C416.104 85.656 417.832 80.376 421.288 76.472C424.808 72.504 429.8 70.52 436.264 70.52C442.728 70.52 447.688 72.504 451.144 76.472C454.664 80.376 456.424 85.656 456.424 92.312ZM448.264 92.312C448.264 87.768 447.24 84.216 445.192 81.656C443.144 79.032 440.168 77.72 436.264 77.72C432.424 77.72 429.448 79.032 427.336 81.656C425.288 84.216 424.264 87.768 424.264 92.312V98.072C424.264 102.808 425.288 106.456 427.336 109.016C429.448 111.576 432.424 112.856 436.264 112.856C440.168 112.856 443.144 111.576 445.192 109.016C447.24 106.456 448.264 102.808 448.264 98.072V92.312ZM489.737 119.96C486.153 119.96 482.441 119.224 478.601 117.752V139.448H470.729V71.48H478.217V78.2C481.161 75.384 483.849 73.4 486.281 72.248C488.713 71.096 491.209 70.52 493.769 70.52C498.825 70.52 502.697 72.44 505.385 76.28C508.137 80.12 509.513 85.528 509.513 92.504V98.072C509.513 104.728 507.817 110.04 504.425 114.008C501.097 117.976 496.201 119.96 489.737 119.96ZM491.849 77.912C489.993 77.912 488.073 78.392 486.089 79.352C484.105 80.312 481.609 82.264 478.601 85.208V110.552C480.457 111.384 482.249 111.992 483.977 112.376C485.705 112.696 487.401 112.856 489.065 112.856C493.417 112.856 496.553 111.544 498.473 108.92C500.393 106.232 501.353 102.616 501.353 98.072V92.504C501.353 87.512 500.553 83.832 498.953 81.464C497.417 79.096 495.049 77.912 491.849 77.912Z" fill="#BC171A"/>
<path d="M184.213 34.9478L210.906 2.09375L178.053 28.7859L178.729 27.3674L178.875 27.515L180.992 25.3982L180.094 24.5L187.603 8.70372L168.502 30.6661L168.394 30.5593L172.645 8.70477L160.282 32.8269L159.462 32.0082L157.345 34.1239L158.847 35.6273L151.08 50.7829C150.386 51.332 149.791 51.9942 149.319 52.7416C148.242 54.456 147.861 56.5173 148.255 58.5033C148.649 60.4892 149.787 62.2493 151.437 63.4229C153.087 64.5966 155.123 65.0949 157.128 64.8158C159.133 64.5366 160.956 63.5012 162.222 61.9216L204.295 40.3539L182.142 44.6618L204.296 25.3972L184.213 34.9478ZM200.115 12.8849L169.042 51.1294L180.993 32.0082L161.865 43.9614L200.115 12.8849ZM178.914 23.3191L178.874 23.2794L176.757 25.3961L177.55 26.1886L175.219 31.088L158.172 44.9392L181.256 18.3967L178.914 23.3191ZM161.121 34.5825L161.58 34.1239L161.432 33.9763L165.55 25.9573L166.036 26.443L167.083 25.3961L166.261 24.5754L168.995 19.251L166.276 33.2268L155.39 45.7463L161.121 34.5825ZM161.953 60.7135C160.962 62.2851 159.386 63.3986 157.574 63.8092C155.761 64.2199 153.86 63.8941 152.288 62.9036C151.115 62.1643 150.188 61.0939 149.623 59.8277C149.059 58.5614 148.883 57.1563 149.117 55.79C149.352 54.4236 149.986 53.1574 150.94 52.1516C151.894 51.1457 153.124 50.4453 154.476 50.1389C155.828 49.8326 157.241 49.9341 158.535 50.4305C159.83 50.927 160.948 51.7962 161.748 52.9281C162.548 54.06 162.995 55.4038 163.032 56.7896C163.068 58.1754 162.693 59.541 161.953 60.7135ZM189.421 46.229L190.317 45.3318L189.766 44.7801L193.75 44.0064L189.421 46.229ZM188.537 45.0188L188.224 45.3318L189.222 46.3305L167.251 57.6127L179.773 46.7231L188.537 45.0188ZM168.058 54.829L181.91 37.7817L194.603 31.7454L184.041 40.9297L184.617 40.3549L183.57 39.3081L182.523 40.3549L183.538 41.3694L168.058 54.829Z" fill="#1E1E1E"/>
<path d="M155.021 53.5916C155.193 53.7001 155.384 53.7736 155.584 53.808C155.784 53.8424 155.989 53.8371 156.187 53.7922C156.385 53.7474 156.572 53.664 156.738 53.5468C156.904 53.4295 157.045 53.2808 157.153 53.109C157.261 52.9374 157.335 52.7461 157.369 52.546C157.404 52.3459 157.399 52.141 157.354 51.943C157.309 51.7449 157.226 51.5577 157.109 51.3918C156.992 51.226 156.843 51.0849 156.671 50.9765C156.62 50.9441 156.566 50.9231 156.514 50.8991C157.048 51.2937 157.203 52.0286 156.845 52.5981C156.664 52.8851 156.376 53.0884 156.045 53.1636C155.714 53.2387 155.367 53.1796 155.08 52.9991C154.808 52.8265 154.612 52.5566 154.531 52.2444C154.451 51.9322 154.493 51.6012 154.649 51.3189C154.61 51.3649 154.571 51.4089 154.539 51.4602C154.32 51.8069 154.248 52.2261 154.339 52.6258C154.429 53.0254 154.675 53.3728 155.021 53.5916ZM160.312 55.6466C160.139 55.5348 160.012 55.3627 159.958 55.1635C159.903 54.9643 159.924 54.752 160.017 54.5673C159.998 54.5914 159.971 54.6061 159.954 54.6333C159.847 54.8035 159.792 55.0016 159.798 55.2027C159.803 55.4039 159.868 55.5989 159.984 55.7632C160.1 55.9275 160.262 56.0537 160.45 56.1258C160.638 56.198 160.843 56.2128 161.039 56.1685C161.235 56.1242 161.414 56.0227 161.553 55.8769C161.691 55.731 161.783 55.5474 161.818 55.3492C161.852 55.1509 161.827 54.947 161.745 54.7631C161.663 54.5792 161.529 54.4236 161.359 54.3161C161.334 54.2993 161.302 54.2972 161.276 54.2847C161.607 54.5485 161.703 55.0175 161.473 55.3839C161.354 55.5725 161.165 55.706 160.947 55.7553C160.729 55.8046 160.501 55.7655 160.312 55.6466ZM159.098 60.3168C159.045 60.2843 158.99 60.2613 158.937 60.2372C159.466 60.6256 159.622 61.3511 159.267 61.9143C159.179 62.054 159.065 62.1749 158.93 62.2703C158.795 62.3656 158.643 62.4334 158.482 62.4699C158.321 62.5063 158.154 62.5107 157.992 62.4827C157.829 62.4548 157.673 62.395 157.534 62.3069C157.266 62.137 157.073 61.8713 156.994 61.5639C156.915 61.2565 156.956 60.9306 157.11 60.6528C157.073 60.6999 157.032 60.7428 157 60.7941C156.893 60.9632 156.821 61.1515 156.787 61.3485C156.753 61.5455 156.759 61.7471 156.803 61.9421C156.847 62.137 156.929 62.3213 157.044 62.4845C157.16 62.6476 157.306 62.7865 157.475 62.8931C157.644 62.9997 157.833 63.072 158.029 63.1058C158.226 63.1396 158.428 63.1343 158.623 63.0902C158.818 63.0461 159.002 62.964 159.165 62.8486C159.329 62.7332 159.467 62.5869 159.574 62.4178C159.788 62.0757 159.858 61.6627 159.769 61.2691C159.68 60.8755 159.439 60.5331 159.098 60.3168ZM151.443 54.5244C151.417 54.5076 151.385 54.5056 151.359 54.494C151.529 54.626 151.641 54.8183 151.672 55.0307C151.703 55.2432 151.651 55.4596 151.527 55.6347C151.403 55.8099 151.216 55.9305 151.005 55.9713C150.794 56.0121 150.576 55.9701 150.395 55.8539C150.221 55.7426 150.094 55.5703 150.04 55.3707C149.986 55.1711 150.009 54.9586 150.103 54.7746C150.084 54.7987 150.056 54.8144 150.039 54.8416C149.932 55.0116 149.878 55.2096 149.883 55.4105C149.889 55.6113 149.953 55.8061 150.069 55.9702C150.185 56.1343 150.347 56.2603 150.535 56.3323C150.723 56.4043 150.927 56.4191 151.123 56.3748C151.319 56.3305 151.498 56.2291 151.636 56.0835C151.775 55.9378 151.867 55.7543 151.901 55.5563C151.935 55.3583 151.91 55.1546 151.828 54.9709C151.747 54.7873 151.613 54.6319 151.443 54.5244ZM155.602 56.7061C155.536 56.6653 155.467 56.6401 155.402 56.6056C155.816 56.9297 156.095 57.3957 156.185 57.9134C156.276 58.4312 156.171 58.9641 155.891 59.4091C155.589 59.8865 155.11 60.2246 154.559 60.3493C154.008 60.4739 153.431 60.3748 152.953 60.0739C152.508 59.7935 152.184 59.3581 152.042 58.8521C151.901 58.3461 151.952 57.8055 152.186 57.3353C152.143 57.3949 152.09 57.4462 152.051 57.5101C151.871 57.7962 151.748 58.115 151.691 58.4484C151.634 58.7819 151.642 59.1233 151.717 59.4533C151.792 59.7833 151.931 60.0953 152.126 60.3717C152.321 60.648 152.569 60.8831 152.855 61.0637C153.141 61.2443 153.46 61.3667 153.793 61.4241C154.127 61.4814 154.468 61.4725 154.798 61.3979C155.128 61.3233 155.44 61.1845 155.716 60.9893C155.993 60.794 156.228 60.5463 156.408 60.2602C156.772 59.6818 156.891 58.9828 156.74 58.3165C156.589 57.6503 156.18 57.0711 155.602 56.7061ZM177.381 11.413L179.498 13.5298L177.381 15.6476L175.265 13.5298L177.381 11.413ZM202.88 21.0652L200.761 23.1831L198.643 21.0652L200.762 18.9484L202.88 21.0652ZM196.424 38.6778L194.305 40.7967L192.187 38.6778L194.305 36.559L196.424 38.6778ZM179.499 50.6363L178.452 49.5894L179.499 48.5426L180.546 49.5894L179.499 50.6363ZM196.401 26.0515L195.354 27.0984L194.307 26.0515L195.354 25.0046L196.401 26.0515ZM203.927 31.3644L202.88 32.4113L201.833 31.3644L202.88 30.3175L203.927 31.3644ZM191.366 10.4719L192.412 11.5188L191.367 12.5656L190.32 11.5188L191.366 10.4719ZM194.307 2.7491L195.354 3.79597L194.307 4.84285L193.26 3.79597L194.307 2.7491ZM182.526 7.65685L183.573 8.70372L182.526 9.7506L181.479 8.70372L182.526 7.65685Z" fill="#1E1E1E"/>
</svg>
